# Blender 4.4.0
# www.blender.org
mtllib exhibidor pan.mtl
o Base
v -2.815538 -1.000000 5.922910
v -2.815538 7.631039 5.922910
v -2.815538 -1.000000 -5.922910
v -2.815538 7.631039 -5.922910
v 2.815538 -1.000000 5.922910
v 2.815538 1.000000 5.922910
v 2.815538 -1.000000 -5.922910
v 2.815538 1.000000 -5.922910
v 2.592943 -1.000000 -5.922910
v 2.469584 1.000000 -5.922910
v 2.592943 -1.000000 5.922910
v 2.469584 1.000000 5.922910
v -2.518821 -1.000000 -5.922910
v -2.518821 7.631039 5.922910
v -2.518821 7.631039 -5.922910
v -2.518821 -1.000000 5.922910
v -2.815538 -1.000000 -5.477653
v -2.815538 7.631039 -5.477653
v 2.815538 -1.000000 -5.477653
v 2.815538 1.000000 -5.477653
v 2.469584 1.000000 -5.477653
v 2.592943 -1.000000 -5.477653
v -2.518821 -1.000000 -5.477653
v -2.518821 7.631039 -5.477653
v -2.815538 -1.000000 5.483861
v 2.815538 1.000000 5.483861
v 2.469584 1.000000 5.483861
v 2.592943 -1.000000 5.483861
v -2.518821 -1.000000 5.483861
v -2.518821 7.631039 5.483861
v -2.815538 7.631039 5.483861
v 2.815538 -1.000000 5.483861
v -2.815538 7.631039 -5.428194
v 2.815538 -1.000000 -5.428194
v -2.815538 -1.000000 -5.428194
v 2.815538 1.000000 -5.428194
v 2.469584 1.000000 -5.428194
v 2.592943 -1.000000 -5.428194
v -2.518821 -1.000000 -5.428194
v -2.518821 7.631039 -5.428194
v -2.815538 -1.000000 5.421887
v 2.815538 1.000000 5.421887
v 2.469584 1.000000 5.421887
v 2.592943 -1.000000 5.421887
v -2.518821 -1.000000 5.421887
v -2.518821 7.631039 5.421887
v -2.815538 7.631039 5.421887
v 2.815538 -1.000000 5.421887
v -2.463202 7.596939 -5.922910
v -2.461827 -1.000000 5.922910
v -2.461827 -1.000000 -5.922910
v -2.463202 7.596939 5.922910
v -2.463202 7.596939 -5.477653
v -2.461827 -1.000000 -5.477653
v -2.463202 7.596939 5.483861
v -2.461827 -1.000000 5.483861
v -2.461827 -1.000000 -5.428194
v -2.138279 1.229974 -5.428194
v -2.461827 -1.000000 5.421887
v -2.138279 1.229974 5.421887
v 2.423508 1.028250 -5.922910
v 2.545727 -1.000000 5.922910
v 2.423508 1.028250 -5.477653
v 2.423508 1.028250 5.483861
v 2.098586 0.926279 -5.428194
v 2.098586 0.926279 5.421887
v 2.545727 -1.000000 -5.922910
v 2.423508 1.028250 5.922910
v 2.545727 -1.000000 -5.477653
v 2.545727 -1.000000 5.483861
v 2.545727 -1.000000 -5.428194
v 2.545727 -1.000000 5.421887
v 2.469584 1.165678 -5.922910
v 2.815538 1.165678 -5.922910
v 2.815538 1.165678 5.483861
v 2.815538 1.165678 5.922910
v 2.469584 1.165678 5.922910
v 2.469584 1.165678 5.483861
v 2.815538 1.165678 -5.477653
v 2.469584 1.165678 -5.477653
v 2.815538 1.165678 5.421887
v 2.469584 1.165678 5.421887
v 2.815538 1.165678 -5.428194
v 2.469584 1.165678 -5.428194
v -4.070763 -1.000000 5.483861
v -4.070763 -1.000000 5.922910
v -4.070763 7.631039 5.922910
v -4.070763 7.631039 -5.477653
v -4.070763 7.631039 -5.922910
v -4.070763 -1.000000 -5.922910
v -4.070763 -1.000000 -5.477653
v -4.070763 7.631039 -5.428194
v -4.070763 -1.000000 5.421887
v -4.070763 7.631039 5.483861
v -4.070763 7.631039 5.421887
v -4.070763 -1.000000 -5.428194
vn -0.0000 -1.0000 -0.0000
vn -0.0000 -0.0000 -1.0000
vn 1.0000 -0.0000 -0.0000
vn -0.0000 -0.0000 1.0000
vn -0.0000 1.0000 -0.0000
vn 0.5227 0.8525 -0.0000
vn 0.7571 0.0513 -0.6512
vn -1.0000 -0.0000 -0.0000
vn 0.6794 0.0461 0.7323
vn 0.9982 0.0593 -0.0000
vn 0.0715 0.9974 -0.0000
vn 0.0115 0.0153 0.9998
vn 0.0144 0.0192 -0.9997
vn 0.8023 0.5969 -0.0000
vn -0.0956 0.8770 -0.4709
vn -0.0901 0.8263 0.5559
vn -0.1949 0.9808 -0.0000
vt 0.808463 0.617472
vt 0.802145 0.617472
vt 0.802145 0.579999
vt 0.808463 0.579999
vt 0.479741 0.725295
vt 0.476062 0.557270
vt 0.486381 0.557283
vt 0.486381 0.725304
vt 0.489140 0.905195
vt 0.489140 0.739066
vt 0.495370 0.739066
vt 0.495370 0.905195
vt 0.894854 0.725266
vt 0.894854 0.000040
vt 0.903707 0.000033
vt 0.903707 0.725258
vt 0.646587 0.778933
vt 0.646587 0.785578
vt 0.640357 0.785578
vt 0.640357 0.778933
vt 0.808463 0.741875
vt 0.817320 0.741875
vt 0.817320 0.748105
vt 0.808463 0.748105
vt 0.476062 0.543351
vt 0.486381 0.543364
vt 0.646587 0.777523
vt 0.640357 0.777523
vt 0.168106 0.725364
vt 0.168106 0.557314
vt 0.178428 0.557305
vt 0.174748 0.725358
vt 0.478333 0.725293
vt 0.474687 0.554894
vt 0.978600 0.725146
vt 0.978600 0.000048
vt 0.987451 0.000060
vt 0.987451 0.725158
vt 0.646587 0.617472
vt 0.646587 0.626330
vt 0.640357 0.626330
vt 0.640357 0.617472
vt 0.993769 0.003086
vt 0.993769 0.000000
vt 1.000000 0.000000
vt 1.000000 0.003086
vt 0.325563 0.725227
vt 0.325604 0.002867
vt 0.327264 0.000000
vt 0.327264 0.725225
vt 0.987451 0.003086
vt 0.987451 0.000000
vt 0.993769 0.000000
vt 0.993769 0.003086
vt 0.808463 0.626330
vt 0.802145 0.626330
vt 0.808463 0.777523
vt 0.808463 0.778933
vt 0.802145 0.778933
vt 0.802145 0.777523
vt 0.168106 0.543392
vt 0.178428 0.543383
vt 0.817320 0.579999
vt 0.817320 0.586318
vt 0.808463 0.586318
vt 0.808463 0.785578
vt 0.802145 0.785578
vt 0.327264 0.905195
vt 0.327264 0.739066
vt 0.333582 0.739066
vt 0.333582 0.905195
vt 0.801443 0.617472
vt 0.801443 0.579999
vt 0.817320 0.740995
vt 0.854787 0.740995
vt 0.854787 0.741875
vt 0.767621 0.522866
vt 0.893940 0.000018
vt 0.893982 0.000000
vt 0.894854 0.003196
vt 0.647467 0.617472
vt 0.647467 0.626330
vt 0.647467 0.777523
vt 0.647467 0.778933
vt 0.626333 0.533439
vt 0.626333 0.539757
vt 0.612407 0.539757
vt 0.612407 0.533439
vt 0.808463 0.740995
vt 0.647467 0.785578
vt 0.488260 0.905195
vt 0.488260 0.739066
vt 0.334284 0.739066
vt 0.334284 0.905195
vt 0.801443 0.785578
vt 0.801443 0.778933
vt 0.817320 0.587020
vt 0.808463 0.587020
vt 0.489140 0.725304
vt 0.495370 0.725304
vt 0.801443 0.777523
vt 0.801443 0.626330
vt 0.640357 0.003195
vt 0.641229 -0.000000
vt 0.641257 0.000011
vt 0.767621 0.522941
vt 0.640357 0.579999
vt 0.646587 0.579999
vt 0.647467 0.579999
vt 0.488260 0.725304
vt 0.486381 0.533439
vt 0.486381 0.000000
vt 0.640357 0.000000
vt 0.640357 0.533439
vt 0.486381 0.533439
vt 0.612407 0.533439
vt 0.612407 0.687414
vt 0.486381 0.687414
vt 0.801443 0.628031
vt 0.647467 0.628031
vt 0.640357 0.574187
vt 0.651943 0.579999
vt 0.802145 0.628031
vt 0.646587 0.628031
vt 0.883258 0.579958
vt 0.894854 0.574144
vt 0.808463 0.628031
vt 0.987451 0.571021
vt 0.993769 0.571021
vt 0.176157 0.725357
vt 0.179803 0.554930
vt 0.993769 0.571021
vt 1.000000 0.571021
vt 0.327264 0.725098
vt 0.328923 0.002867
vt 0.328964 0.725100
vt 0.640357 0.628031
vt 0.993769 0.573578
vt 1.000000 0.573578
vt 0.987451 0.573578
vt 0.993769 0.573578
vt 0.639347 0.534024
vt 0.636659 0.546411
vt 0.636659 0.533439
vt 0.639349 0.533979
vt 0.636659 0.546952
vt 0.639349 0.546411
vt 0.639349 0.559373
vt 0.636661 0.546982
vt 0.601226 0.687414
vt 0.612407 0.687414
vt 0.612407 0.841390
vt 0.601226 0.841390
vt 0.626333 0.695314
vt 0.636659 0.695314
vt 0.636659 0.701545
vt 0.626333 0.701545
vt 0.626333 0.533439
vt 0.636659 0.533439
vt 0.636659 0.539757
vt 0.626333 0.539757
vt 0.626333 0.694435
vt 0.636659 0.694435
vt 0.636659 0.540459
vt 0.626333 0.540459
vt 0.333582 0.725304
vt 0.334284 0.725304
vt 0.626333 0.694435
vt 0.626333 0.695314
vt 0.612407 0.695314
vt 0.612407 0.694435
vt 0.626333 0.701545
vt 0.612407 0.701545
vt 0.626333 0.540459
vt 0.612407 0.540459
vt 0.327264 0.725304
vt 0.161788 0.725467
vt 0.161788 0.000000
vt 0.168106 0.000000
vt 0.168106 0.725467
vt 0.161086 0.725467
vt 0.161086 0.000000
vt 0.000000 0.725467
vt 0.000000 0.000000
vt 0.006231 0.000000
vt 0.006231 0.725467
vt 0.007110 0.725467
vt 0.007110 0.000000
vt 0.941158 0.000000
vt 0.941158 0.725225
vt 0.854787 0.586318
vt 0.854787 0.587020
vt 0.854787 0.579999
vt 0.854787 0.748105
vt 0.941158 0.725098
s 0
f 3/1/1 17/2/1 91/3/1 90/4/1
f 9/5/2 10/6/2 8/7/2 7/8/2
f 32/9/3 26/10/3 6/11/3 5/12/3
f 16/13/4 14/14/4 2/15/4 1/16/4
f 28/17/1 32/18/1 5/19/1 11/20/1
f 30/21/5 31/22/5 2/23/5 14/24/5
f 8/7/2 10/6/2 73/25/2 74/26/2
f 70/27/1 28/17/1 11/20/1 62/28/1
f 5/29/4 6/30/4 12/31/4 11/32/4
f 67/33/2 61/34/2 10/6/2 9/5/2
f 3/35/2 4/36/2 15/37/2 13/38/2
f 25/39/1 29/40/1 16/41/1 1/42/1
f 55/43/6 30/44/6 14/45/6 52/46/6
f 50/47/4 52/48/4 14/49/4 16/50/4
f 49/51/6 15/52/6 24/53/6 53/54/6
f 3/1/1 13/55/1 23/56/1 17/2/1
f 67/57/1 9/58/1 22/59/1 69/60/1
f 12/31/4 6/30/4 76/61/4 77/62/4
f 15/4/5 4/63/5 18/64/5 24/65/5
f 9/58/1 7/66/1 19/67/1 22/59/1
f 7/68/3 8/69/3 20/70/3 19/71/3
f 17/2/1 35/72/1 96/73/1 91/3/1
f 31/22/5 47/74/5 95/75/5 94/76/5
f 60/77/7 46/78/7 30/79/7 55/80/7
f 41/81/1 45/82/1 29/40/1 25/39/1
f 72/83/1 44/84/1 28/17/1 70/27/1
f 10/85/8 21/86/8 80/87/8 73/88/8
f 46/89/5 47/74/5 31/22/5 30/21/5
f 44/84/1 48/90/1 32/18/1 28/17/1
f 48/91/3 42/92/3 26/10/3 32/9/3
f 19/71/3 20/70/3 36/93/3 34/94/3
f 22/59/1 19/67/1 34/95/1 38/96/1
f 24/65/5 18/64/5 33/97/5 40/98/5
f 6/11/3 26/10/3 75/99/3 76/100/3
f 69/60/1 22/59/1 38/96/1 71/101/1
f 17/2/1 23/56/1 39/102/1 35/72/1
f 53/103/9 24/104/9 40/105/9 58/106/9
f 25/39/1 1/42/1 86/107/1 85/108/1
f 41/81/1 25/39/1 85/108/1 93/109/1
f 34/94/3 36/93/3 42/92/3 48/91/3
f 38/96/1 34/95/1 48/90/1 44/84/1
f 40/98/5 33/97/5 47/74/5 46/89/5
f 26/10/3 42/92/3 81/110/3 75/99/3
f 71/101/1 38/96/1 44/84/1 72/83/1
f 35/72/1 39/102/1 45/82/1 41/81/1
f 58/111/10 40/112/10 46/113/10 60/114/10
f 65/115/11 58/116/11 60/117/11 66/118/11
f 39/102/1 57/119/1 59/120/1 45/82/1
f 63/121/12 53/103/12 58/106/12 65/122/12
f 23/56/1 54/123/1 57/119/1 39/102/1
f 45/82/1 59/120/1 56/124/1 29/40/1
f 66/125/13 60/77/13 55/80/13 64/126/13
f 13/55/1 51/127/1 54/123/1 23/56/1
f 61/128/14 49/51/14 53/54/14 63/129/14
f 62/130/4 68/131/4 52/48/4 50/47/4
f 64/132/14 55/43/14 52/46/14 68/133/14
f 13/134/2 15/49/2 49/135/2 51/136/2
f 29/40/1 56/124/1 50/137/1 16/41/1
f 27/138/6 64/132/6 68/133/6 12/139/6
f 11/32/4 12/31/4 68/131/4 62/130/4
f 10/140/6 61/128/6 63/129/6 21/141/6
f 43/142/15 66/143/15 64/144/15 27/145/15
f 21/146/16 63/147/16 65/148/16 37/149/16
f 37/150/17 65/151/17 66/152/17 43/153/17
f 57/119/1 71/101/1 72/83/1 59/120/1
f 54/123/1 69/60/1 71/101/1 57/119/1
f 59/120/1 72/83/1 70/27/1 56/124/1
f 51/127/1 67/57/1 69/60/1 54/123/1
f 51/136/2 49/135/2 61/34/2 67/33/2
f 56/124/1 70/27/1 62/28/1 50/137/1
f 75/154/5 78/155/5 77/156/5 76/157/5
f 74/158/5 73/159/5 80/160/5 79/161/5
f 81/162/5 82/163/5 78/155/5 75/154/5
f 79/161/5 80/160/5 84/164/5 83/165/5
f 83/165/5 84/164/5 82/163/5 81/162/5
f 36/93/3 20/70/3 79/166/3 83/167/3
f 43/168/8 27/169/8 78/170/8 82/171/8
f 42/92/3 36/93/3 83/167/3 81/110/3
f 27/169/8 12/172/8 77/173/8 78/170/8
f 21/86/8 37/174/8 84/175/8 80/87/8
f 37/174/8 43/168/8 82/171/8 84/175/8
f 20/70/3 8/69/3 74/176/3 79/166/3
f 91/177/8 88/178/8 89/179/8 90/180/8
f 96/181/8 92/182/8 88/178/8 91/177/8
f 86/183/8 87/184/8 94/185/8 85/186/8
f 93/187/8 95/188/8 92/182/8 96/181/8
f 85/186/8 94/185/8 95/188/8 93/187/8
f 1/16/4 2/15/4 87/189/4 86/190/4
f 35/72/1 41/81/1 93/109/1 96/73/1
f 33/97/5 18/64/5 88/191/5 92/192/5
f 18/64/5 4/63/5 89/193/5 88/191/5
f 47/74/5 33/97/5 92/192/5 95/75/5
f 2/23/5 31/22/5 94/76/5 87/194/5
f 4/36/2 3/35/2 90/195/2 89/189/2
o Estante_bajo
v -3.152246 3.636595 5.815518
v -3.126736 3.884706 5.815518
v -3.152246 3.636595 -5.815518
v -3.126736 3.884706 -5.815518
v 0.078571 3.304414 5.815518
v 0.104081 3.552525 5.815518
v 0.078571 3.304414 -5.815518
v 0.104081 3.552525 -5.815518
v 0.011324 3.311328 -5.815518
v -0.087705 3.559439 -5.815518
v 0.011324 3.311328 5.815518
v -0.087705 3.559439 5.815518
v -0.162398 3.329190 -5.815518
v -0.136888 3.577300 5.815518
v -0.136888 3.577300 -5.815518
v -0.162398 3.329190 5.815518
v -0.079769 3.685287 -5.815518
v 0.112018 3.678373 -5.815518
v 0.112018 3.678373 5.815518
v -0.079769 3.685287 5.815518
vn -0.9948 0.1023 -0.0000
vn -0.0000 -0.0000 -1.0000
vn 0.9948 -0.1023 -0.0000
vn -0.0000 -0.0000 1.0000
vn -0.1023 -0.9948 -0.0000
vn 0.1023 0.9948 -0.0000
vn 0.9980 -0.0629 -0.0000
vn 0.3413 0.9399 -0.0000
vn 0.0360 0.9994 -0.0000
vn -0.9980 0.0629 -0.0000
vt 1.000000 0.741854
vt 0.750001 0.741854
vt 0.750001 0.491854
vt 1.000000 0.491854
vt 0.000000 0.481616
vt 0.237233 0.462855
vt 0.250000 0.491854
vt 0.000000 0.491854
vt 0.500001 0.862160
vt 0.500001 0.616228
vt 0.750001 0.616228
vt 0.750001 0.862160
vt 0.376294 0.036685
vt 0.626294 0.036685
vt 0.626294 0.491854
vt 0.376294 0.491854
vt 0.250000 0.973470
vt 0.250000 0.983707
vt 0.000000 0.983707
vt 0.000000 0.973470
vt 0.500001 0.491854
vt 0.500001 0.937272
vt 0.250000 0.937272
vt 0.250000 0.491854
vt 0.750001 0.491854
vt 0.250000 0.947023
vt 0.000000 0.947023
vt 0.376294 0.000000
vt 0.626294 -0.000000
vt 0.613527 0.028999
vt 0.376294 0.010238
vt 0.000000 0.455169
vt 0.250000 0.455169
vt 0.000000 0.000000
vt 0.250000 0.000000
vt 0.000000 0.491854
vt 0.923830 0.250000
vt 0.909890 0.250000
vt 0.909890 0.000000
vt 0.923830 0.000000
vt 0.878884 -0.000000
vt 0.909890 0.000000
vt 0.909890 0.250000
vt 0.878884 0.250000
vt 0.752588 0.000754
vt 0.739821 0.029752
vt 0.363527 0.462101
vt 0.376294 0.491100
vt 0.878884 0.000000
vt 0.878884 0.250000
vt 0.752588 0.250000
vt 0.752588 0.000000
s 0
f 97/196/18 98/197/18 100/198/18 99/199/18
f 105/200/19 106/201/19 104/202/19 103/203/19
f 103/204/20 104/205/20 102/206/20 101/207/20
f 112/208/21 110/209/21 98/210/21 97/211/21
f 105/212/22 103/213/22 101/214/22 107/215/22
f 111/216/23 100/217/23 98/218/23 110/219/23
f 102/206/24 104/205/24 114/216/24 115/220/24
f 109/221/22 105/212/22 107/215/22 112/222/22
f 101/223/21 102/224/21 108/225/21 107/226/21
f 109/227/19 111/228/19 106/201/19 105/200/19
f 99/229/19 100/230/19 111/228/19 109/227/19
f 99/219/22 109/221/22 112/222/22 97/231/22
f 106/232/25 111/233/25 110/234/25 108/235/25
f 107/226/21 108/225/21 110/209/21 112/208/21
f 114/236/26 113/237/26 116/238/26 115/239/26
f 108/225/21 102/224/21 115/240/21 116/241/21
f 104/202/19 106/201/19 113/242/19 114/243/19
f 106/244/27 108/245/27 116/246/27 113/247/27
o Estante_alto
v -2.769673 5.286935 5.815518
v -2.744295 5.533764 5.815518
v -2.769673 5.286935 -5.815518
v -2.744295 5.533764 -5.815518
v -1.101759 5.115446 5.815518
v -1.076380 5.362275 5.815518
v -1.101759 5.115446 -5.815518
v -1.076380 5.362275 -5.815518
v -1.136475 5.119015 -5.815518
v -1.176014 5.359780 -5.815518
v -1.136475 5.119015 5.815518
v -1.176014 5.359780 5.815518
v -1.226159 5.128236 -5.815518
v -1.200781 5.375065 5.815518
v -1.200781 5.375065 -5.815518
v -1.226159 5.128236 5.815518
v -1.165749 5.484735 -5.815518
v -1.066116 5.487229 -5.815518
v -1.066116 5.487229 5.815518
v -1.165749 5.484735 5.815518
vn -0.9948 0.1023 -0.0000
vn -0.0000 -0.0000 -1.0000
vn 0.9948 -0.1023 -0.0000
vn -0.0000 -0.0000 1.0000
vn -0.1023 -0.9948 -0.0000
vn 0.1023 0.9948 -0.0000
vn 0.9966 -0.0819 -0.0000
vn 0.5252 0.8510 -0.0000
vn -0.0250 0.9997 -0.0000
vn -0.9966 0.0819 -0.0000
vt 1.000000 0.741854
vt 0.750001 0.741854
vt 0.750001 0.491854
vt 1.000000 0.491854
vt 0.000000 0.481616
vt 0.237233 0.462855
vt 0.250000 0.491854
vt 0.000000 0.491854
vt 0.500001 0.862160
vt 0.500001 0.616228
vt 0.750001 0.616228
vt 0.750001 0.862160
vt 0.376294 0.036685
vt 0.626294 0.036685
vt 0.626294 0.491854
vt 0.376294 0.491854
vt 0.250000 0.973470
vt 0.250000 0.983707
vt 0.000000 0.983707
vt 0.000000 0.973470
vt 0.500001 0.491854
vt 0.500001 0.937272
vt 0.250000 0.937272
vt 0.250000 0.491854
vt 0.750001 0.491854
vt 0.250000 0.947023
vt 0.000000 0.947023
vt 0.376294 0.000000
vt 0.626294 -0.000000
vt 0.613527 0.028999
vt 0.376294 0.010238
vt 0.000000 0.455169
vt 0.250000 0.455169
vt 0.000000 0.000000
vt 0.250000 0.000000
vt 0.000000 0.491854
vt 0.923830 0.250000
vt 0.909890 0.250000
vt 0.909890 0.000000
vt 0.923830 0.000000
vt 0.878884 -0.000000
vt 0.909890 0.000000
vt 0.909890 0.250000
vt 0.878884 0.250000
vt 0.752588 0.000754
vt 0.739821 0.029752
vt 0.363527 0.462101
vt 0.376294 0.491100
vt 0.878884 0.000000
vt 0.878884 0.250000
vt 0.752588 0.250000
vt 0.752588 0.000000
s 0
f 117/248/28 118/249/28 120/250/28 119/251/28
f 125/252/29 126/253/29 124/254/29 123/255/29
f 123/256/30 124/257/30 122/258/30 121/259/30
f 132/260/31 130/261/31 118/262/31 117/263/31
f 125/264/32 123/265/32 121/266/32 127/267/32
f 131/268/33 120/269/33 118/270/33 130/271/33
f 122/258/34 124/257/34 134/268/34 135/272/34
f 129/273/32 125/264/32 127/267/32 132/274/32
f 121/275/31 122/276/31 128/277/31 127/278/31
f 129/279/29 131/280/29 126/253/29 125/252/29
f 119/281/29 120/282/29 131/280/29 129/279/29
f 119/271/32 129/273/32 132/274/32 117/283/32
f 126/284/35 131/285/35 130/286/35 128/287/35
f 127/278/31 128/277/31 130/261/31 132/260/31
f 134/288/36 133/289/36 136/290/36 135/291/36
f 128/277/31 122/276/31 135/292/31 136/293/31
f 124/254/29 126/253/29 133/294/29 134/295/29
f 126/296/37 128/297/37 136/298/37 133/299/37
o Separador
v -3.817058 -0.389817 0.146181
v -3.817058 3.329766 0.146181
v -3.817058 -0.389817 -0.146181
v -3.817058 3.329766 -0.146181
v 2.203074 -0.389817 0.146181
v -0.016686 3.329766 0.146181
v 2.203074 -0.389817 -0.146181
v -0.016686 3.329766 -0.146181
v -3.817058 1.024843 0.146181
v -3.817058 1.024843 -0.146181
v 2.174903 0.852143 -0.146181
v 2.174903 0.852143 0.146181
vn -1.0000 -0.0000 -0.0000
vn -0.0000 -0.0000 -1.0000
vn 0.7490 0.6625 -0.0000
vn -0.0000 -0.0000 1.0000
vn -0.0000 -1.0000 -0.0000
vn -0.0000 1.0000 -0.0000
vn 0.9997 0.0227 -0.0000
vt 0.903033 0.913597
vt 0.745045 0.913597
vt 0.745045 0.457126
vt 0.903033 0.457126
vt 0.417098 0.914253
vt 0.259109 0.914253
vt 0.259109 0.625679
vt 0.428935 0.459265
vt 0.173953 0.913598
vt -0.000000 0.913598
vt 0.000000 0.457126
vt 0.173953 0.457126
vt 0.914871 0.454987
vt 0.745045 0.288573
vt 0.745045 -0.000000
vt 0.903033 0.000000
vt 0.456471 0.000000
vt 0.456471 0.457126
vt 0.000000 0.457126
vt 0.000000 0.000000
vt 0.745045 0.456471
vt 0.456471 0.456471
vt 0.456471 0.000000
vt 0.745045 0.000000
vt 1.000000 0.457126
vt 1.000000 0.000000
vt 0.259109 0.913598
vt 0.259109 0.457126
vt 0.514064 0.914253
vt 0.514064 0.457126
vt 1.000000 0.913597
vt 1.000000 0.457126
s 0
f 145/300/38 138/301/38 140/302/38 146/303/38
f 146/304/39 140/305/39 144/306/39 147/307/39
f 147/308/40 144/309/40 142/310/40 148/311/40
f 148/312/41 142/313/41 138/314/41 145/315/41
f 139/316/42 143/317/42 141/318/42 137/319/42
f 144/320/43 140/321/43 138/322/43 142/323/43
f 141/324/41 148/312/41 145/315/41 137/325/41
f 143/326/44 147/308/44 148/311/44 141/327/44
f 139/328/39 146/304/39 147/307/39 143/329/39
f 137/330/38 145/300/38 146/303/38 139/331/38
