# Blender 4.4.0
# www.blender.org
mtllib caja.mtl
o maquina_caja
v -1.745838 -0.246000 1.000000
v -1.745838 0.246000 1.000000
v -1.745838 -0.246000 -1.000000
v -1.745838 0.246000 -1.000000
v 1.745838 -0.246000 1.000000
v 1.745838 0.246000 1.000000
v 1.745838 -0.246000 -1.000000
v 1.745838 0.246000 -1.000000
v -1.745838 -0.298682 1.000000
v -1.745838 -0.298682 -1.000000
v 1.745838 -0.298682 1.000000
v 1.745838 -0.298682 -1.000000
v -1.722928 -0.342683 1.000000
v -1.722928 -0.342683 -1.000000
v 1.722928 -0.342683 1.000000
v 1.722928 -0.342683 -1.000000
v -1.745838 0.300919 1.000000
v -1.745838 0.300919 -1.000000
v 1.745838 0.300919 1.000000
v 1.745838 0.300919 -1.000000
v -1.692464 0.349946 1.000000
v -1.692464 0.349946 -1.000000
v 1.692464 0.349946 1.000000
v 1.692464 0.349946 -1.000000
v -1.636865 -0.246000 -1.000000
v -1.636865 0.246000 -1.000000
v -1.636865 -0.246000 1.000000
v -1.636865 0.246000 1.000000
v -1.636865 -0.298682 -1.000000
v -1.636865 -0.298682 1.000000
v -1.615385 -0.342683 -1.000000
v -1.615385 -0.342683 1.000000
v -1.636865 0.300919 -1.000000
v -1.636865 0.300919 1.000000
v -1.586823 0.349946 -1.000000
v -1.586823 0.349946 1.000000
v 1.631866 0.246000 -1.000000
v 1.631866 -0.246000 1.000000
v 1.631866 -0.298682 1.000000
v 1.610452 -0.342683 1.000000
v 1.631866 0.300919 -1.000000
v 1.581976 0.349946 -1.000000
v 1.631866 -0.246000 -1.000000
v 1.631866 0.246000 1.000000
v 1.631866 -0.298682 -1.000000
v 1.610452 -0.342683 -1.000000
v 1.631866 0.300919 1.000000
v 1.581976 0.349946 1.000000
v -1.745838 -0.246000 -0.835198
v -1.745838 0.246000 -0.835198
v 1.745838 -0.246000 -0.835198
v 1.745838 0.246000 -0.835198
v -1.745838 -0.298682 -0.835198
v 1.745838 -0.298682 -0.835198
v -1.722928 -0.342683 -0.835198
v 1.722928 -0.342683 -0.835198
v -1.745838 0.300919 -0.835198
v 1.745838 0.300919 -0.835198
v -1.692464 0.349946 -0.835198
v 1.692464 0.349946 -0.835198
v -1.586823 0.349946 -0.835198
v -1.615385 -0.342683 -0.835198
v 1.581976 0.349946 -0.835198
v 1.610452 -0.342683 -0.835198
v -1.745838 -0.246000 0.855354
v 1.745838 0.246000 0.855354
v -1.745838 -0.298682 0.855354
v -1.722928 -0.342683 0.855354
v 1.745838 0.300919 0.855354
v 1.692464 0.349946 0.855354
v -1.586823 0.349946 0.855354
v -1.615385 -0.342683 0.855354
v 1.581976 0.349946 0.855354
v 1.610452 -0.342683 0.855354
v -1.745838 0.246000 0.855354
v 1.745838 -0.246000 0.855354
v 1.745838 -0.298682 0.855354
v 1.722928 -0.342683 0.855354
v -1.745838 0.300919 0.855354
v -1.692464 0.349946 0.855354
v -1.745838 -0.165432 1.000000
v -1.745838 -0.165432 -1.000000
v 1.745838 -0.165432 -1.000000
v 1.745838 -0.165432 1.000000
v -1.636865 -0.165432 1.000000
v -1.636865 -0.165432 -1.000000
v 1.631866 -0.165432 1.000000
v 1.631866 -0.165432 -1.000000
v 1.745838 -0.165432 -0.835198
v -1.745838 -0.165432 -0.835198
v -1.745838 -0.165432 0.855354
v 1.745838 -0.165432 0.855354
v -1.745838 0.153525 1.000000
v -1.745838 0.153525 -1.000000
v 1.745838 0.153525 -1.000000
v 1.745838 0.153525 1.000000
v -1.636865 0.153525 1.000000
v -1.636865 0.153525 -1.000000
v 1.631866 0.153525 1.000000
v 1.631866 0.153525 -1.000000
v 1.745838 0.153525 -0.835198
v -1.745838 0.153525 -0.835198
v -1.745838 0.153525 0.855354
v 1.745838 0.153525 0.855354
vn -1.0000 -0.0000 -0.0000
vn -0.0000 -0.0000 -1.0000
vn 1.0000 -0.0000 -0.0000
vn -0.0000 -0.0000 1.0000
vn 0.8870 -0.4618 -0.0000
vn -0.0000 -1.0000 -0.0000
vn -0.8870 -0.4618 -0.0000
vn -0.0000 1.0000 -0.0000
vn 0.6765 0.7365 -0.0000
vn -0.6765 0.7365 -0.0000
vt 0.578011 0.229400
vt 0.625000 0.229400
vt 0.625000 0.250000
vt 0.578011 0.250000
vt 0.578011 0.491840
vt 0.625000 0.491840
vt 0.625000 0.500000
vt 0.578011 0.500000
vt 0.578011 0.731919
vt 0.625000 0.731919
vt 0.625000 0.750000
vt 0.578011 0.750000
vt 0.578011 0.992198
vt 0.625000 0.992198
vt 0.625000 1.000000
vt 0.578011 1.000000
vt 0.375000 0.731919
vt 0.375000 0.750000
vt 0.375000 0.731919
vt 0.625000 0.257802
vt 0.375000 0.992198
vt 0.375000 1.000000
vt 0.375000 0.491840
vt 0.375000 0.500000
vt 0.375000 0.491840
vt 0.375000 0.229400
vt 0.375000 0.250000
vt 0.375000 0.229400
vt 0.366840 0.731919
vt 0.366840 0.750000
vt 0.375000 0.491840
vt 0.625000 0.758160
vt 0.625000 0.758160
vt 0.625000 0.520600
vt 0.625000 0.520600
vt 0.625000 0.018081
vt 0.625000 0.000000
vt 0.625000 0.018081
vt 0.867198 0.731919
vt 0.875000 0.731919
vt 0.875000 0.750000
vt 0.867198 0.750000
vt 0.625000 0.520600
vt 0.625000 0.018081
vt 0.625000 0.491840
vt 0.633160 0.731919
vt 0.633160 0.750000
vt 0.375000 0.257802
vt 0.375000 0.758160
vt 0.375000 0.758160
vt 0.125000 0.731919
vt 0.132802 0.731919
vt 0.132802 0.750000
vt 0.125000 0.750000
vt 0.578011 0.758160
vt 0.578011 0.257802
vt 0.132802 0.500000
vt 0.366840 0.500000
vt 0.366840 0.520600
vt 0.132802 0.520600
vt 0.633160 0.500000
vt 0.633160 0.520600
vt 0.125000 0.500000
vt 0.125000 0.520600
vt 0.867198 0.500000
vt 0.867198 0.520600
vt 0.625000 0.229400
vt 0.625000 0.229400
vt 0.625000 0.731919
vt 0.875000 0.500000
vt 0.875000 0.520600
vt 0.375000 0.018081
vt 0.375000 0.018081
vt 0.375000 0.520600
vt 0.375000 0.520600
vt 0.578011 0.520600
vt 0.578011 0.018081
vt 0.578011 0.000000
vt 0.375000 0.000000
vt 0.415939 0.520600
vt 0.415939 0.731919
vt 0.415939 0.000000
vt 0.415939 0.018081
vt 0.415939 0.229400
vt 0.415939 0.500000
vt 0.415939 0.257802
vt 0.415939 0.491840
vt 0.415939 0.750000
vt 0.415939 0.758160
vt 0.415939 0.250000
vt 0.415939 0.992198
vt 0.415939 1.000000
s 0
f 102/1/1 50/2/1 4/3/1 94/4/1
f 100/5/2 37/6/2 8/7/2 95/8/2
f 104/9/3 66/10/3 6/11/3 96/12/3
f 97/13/4 28/14/4 2/15/4 93/16/4
f 76/17/3 5/18/3 11/18/3 77/19/3
f 26/20/2 4/3/2 18/3/2 33/20/2
f 77/19/5 11/18/5 15/18/5 78/19/5
f 27/21/4 1/22/4 9/22/4 30/21/4
f 43/23/2 7/24/2 12/24/2 45/25/2
f 49/26/1 3/27/1 10/27/1 53/28/1
f 74/29/6 78/19/6 15/18/6 40/30/6
f 53/28/7 10/27/7 14/27/7 55/26/7
f 30/21/4 9/22/4 13/22/4 32/21/4
f 45/25/2 12/24/2 16/24/2 46/31/2
f 47/32/4 19/11/4 23/11/4 48/33/4
f 52/34/3 8/7/3 20/7/3 58/35/3
f 75/36/1 2/37/1 17/37/1 79/38/1
f 44/33/4 6/11/4 19/11/4 47/32/4
f 71/39/8 80/40/8 21/41/8 36/42/8
f 33/20/2 18/3/2 22/3/2 35/20/2
f 58/35/9 20/7/9 24/7/9 60/43/9
f 79/38/10 17/37/10 21/37/10 80/44/10
f 41/45/2 33/20/2 35/20/2 42/6/2
f 73/46/8 71/39/8 36/42/8 48/47/8
f 2/15/4 28/14/4 34/14/4 17/15/4
f 17/15/4 34/14/4 36/14/4 21/15/4
f 10/27/2 29/48/2 31/48/2 14/27/2
f 39/49/4 30/21/4 32/21/4 40/50/4
f 68/51/6 72/52/6 32/53/6 13/54/6
f 3/27/2 25/48/2 29/48/2 10/27/2
f 38/50/4 27/21/4 30/21/4 39/49/4
f 37/6/2 26/20/2 33/20/2 41/45/2
f 99/55/4 44/33/4 28/14/4 97/13/4
f 94/4/2 4/3/2 26/20/2 98/56/2
f 96/12/4 6/11/4 44/33/4 99/55/4
f 8/7/2 37/6/2 41/45/2 20/7/2
f 5/18/4 38/50/4 39/49/4 11/18/4
f 11/18/4 39/49/4 40/50/4 15/18/4
f 70/10/8 73/46/8 48/47/8 23/11/8
f 20/7/2 41/45/2 42/6/2 24/7/2
f 28/14/4 44/33/4 47/32/4 34/14/4
f 34/14/4 47/32/4 48/33/4 36/14/4
f 29/48/2 45/25/2 46/31/2 31/48/2
f 72/52/6 74/29/6 40/30/6 32/53/6
f 25/48/2 43/23/2 45/25/2 29/48/2
f 98/56/2 26/20/2 37/6/2 100/5/2
f 31/57/6 46/58/6 64/59/6 62/60/6
f 24/7/8 42/61/8 63/62/8 60/43/8
f 14/63/6 31/57/6 62/60/6 55/64/6
f 42/61/8 35/65/8 61/66/8 63/62/8
f 18/3/10 57/67/10 59/68/10 22/3/10
f 69/69/9 58/35/9 60/43/9 70/10/9
f 35/65/8 22/70/8 59/71/8 61/66/8
f 4/3/1 50/2/1 57/67/1 18/3/1
f 66/10/3 52/34/3 58/35/3 69/69/3
f 67/72/7 53/28/7 55/26/7 68/73/7
f 46/58/6 16/24/6 56/74/6 64/59/6
f 65/72/1 49/26/1 53/28/1 67/72/1
f 12/24/5 54/75/5 56/74/5 16/24/5
f 7/24/3 51/75/3 54/75/3 12/24/3
f 95/8/3 8/7/3 52/34/3 101/76/3
f 103/77/1 75/36/1 50/2/1 102/1/1
f 93/78/1 2/37/1 75/36/1 103/77/1
f 1/79/1 65/72/1 67/72/1 9/79/1
f 9/79/7 67/72/7 68/73/7 13/79/7
f 6/11/3 66/10/3 69/69/3 19/11/3
f 19/11/9 69/69/9 70/10/9 23/11/9
f 62/60/6 64/59/6 74/29/6 72/52/6
f 60/43/8 63/62/8 73/46/8 70/10/8
f 55/64/6 62/60/6 72/52/6 68/51/6
f 63/62/8 61/66/8 71/39/8 73/46/8
f 57/67/10 79/38/10 80/44/10 59/68/10
f 61/66/8 59/71/8 80/40/8 71/39/8
f 50/2/1 75/36/1 79/38/1 57/67/1
f 64/59/6 56/74/6 78/19/6 74/29/6
f 54/75/5 77/19/5 78/19/5 56/74/5
f 51/75/3 76/17/3 77/19/3 54/75/3
f 101/76/3 52/34/3 66/10/3 104/9/3
f 51/75/3 89/80/3 92/81/3 76/17/3
f 1/79/1 81/82/1 91/83/1 65/72/1
f 65/72/1 91/83/1 90/84/1 49/26/1
f 7/24/3 83/85/3 89/80/3 51/75/3
f 25/48/2 86/86/2 88/87/2 43/23/2
f 5/18/4 84/88/4 87/89/4 38/50/4
f 3/27/2 82/90/2 86/86/2 25/48/2
f 38/50/4 87/89/4 85/91/4 27/21/4
f 27/21/4 85/91/4 81/92/4 1/22/4
f 76/17/3 92/81/3 84/88/3 5/18/3
f 43/23/2 88/87/2 83/85/2 7/24/2
f 49/26/1 90/84/1 82/90/1 3/27/1
f 89/80/3 101/76/3 104/9/3 92/81/3
f 81/82/1 93/78/1 103/77/1 91/83/1
f 91/83/1 103/77/1 102/1/1 90/84/1
f 83/85/3 95/8/3 101/76/3 89/80/3
f 86/86/2 98/56/2 100/5/2 88/87/2
f 84/88/4 96/12/4 99/55/4 87/89/4
f 82/90/2 94/4/2 98/56/2 86/86/2
f 87/89/4 99/55/4 97/13/4 85/91/4
f 85/91/4 97/13/4 93/16/4 81/92/4
f 92/81/3 104/9/3 96/12/3 84/88/3
f 88/87/2 100/5/2 95/8/2 83/85/2
f 90/84/1 102/1/1 94/4/1 82/90/1
