# Blender 4.4.0
# www.blender.org
mtllib escritorio caja.mtl
o escritorio_caja
v -2.855162 -1.235455 1.000000
v -2.855162 1.235455 1.000000
v -2.855162 -1.235455 -1.000000
v -2.855162 1.235455 -1.000000
v 2.855162 -1.235455 1.000000
v 2.855162 1.235455 1.000000
v 2.855162 -1.235455 -1.000000
v 2.855162 1.235455 -1.000000
v -2.921270 1.357339 1.190093
v -2.921270 1.357339 -1.000000
v 2.921270 1.357339 1.190093
v 2.921270 1.357339 -1.000000
v -2.921270 1.454790 1.190093
v -2.921270 1.454790 -1.000000
v 2.921270 1.454790 1.190093
v 2.921270 1.454790 -1.000000
v -2.775133 1.551365 1.122383
v -2.775133 1.551365 -0.954202
v 2.775133 1.551365 1.122383
v 2.775133 1.551365 -0.954202
v -2.855162 1.041888 1.000000
v -2.855162 1.041888 -1.000000
v 2.855162 1.041888 -1.000000
v 2.855162 1.041888 1.000000
v -2.682440 -1.235455 -1.000000
v -2.682440 1.235455 -1.000000
v -2.682440 -1.235455 1.000000
v -2.682440 1.235455 1.000000
v -2.744549 1.357339 -1.000000
v -2.744549 1.357339 1.190093
v -2.744549 1.454790 -1.000000
v -2.744549 1.454790 1.190093
v -2.607253 1.551365 -0.954202
v -2.607253 1.551365 1.122383
v -2.682440 1.041888 1.000000
v -2.682440 1.041888 -1.000000
v 2.703683 1.235455 -1.000000
v 2.703683 -1.235455 1.000000
v 2.766284 1.357339 -1.000000
v 2.766284 1.454790 -1.000000
v 2.627900 1.551365 -0.954202
v 2.703683 1.041888 -1.000000
v 2.703683 -1.235455 -1.000000
v 2.703683 1.235455 1.000000
v 2.766284 1.357339 1.190093
v 2.766284 1.454790 1.190093
v 2.627900 1.551365 1.122383
v 2.703683 1.041888 1.000000
v -2.855162 0.999478 -1.000000
v 2.855162 0.999478 -1.000000
v 2.855162 0.999478 1.000000
v -2.855162 0.999478 1.000000
v -2.682440 0.999478 -1.000000
v -2.682440 0.999478 1.000000
v 2.703683 0.999478 1.000000
v 2.703683 0.999478 -1.000000
v 2.667056 -1.235455 0.276589
v 2.667056 1.235455 1.000000
v 2.728809 1.357339 1.190093
v 2.728809 1.454790 1.190093
v 2.592300 1.551365 1.122383
v 2.667056 1.041888 1.000000
v 2.667056 1.235455 -1.000000
v 2.667056 -1.235455 1.000000
v 2.728809 1.357339 -1.000000
v 2.728809 1.454790 -1.000000
v 2.592300 1.551365 -0.954202
v 2.667056 1.041888 -1.000000
v 2.667056 0.999478 0.276589
v 2.667056 0.999478 1.000000
v -2.627334 -1.235455 0.276589
v -2.627334 1.235455 1.000000
v -2.688168 1.357339 1.190093
v -2.688168 1.454790 1.190093
v -2.553692 1.551365 1.122383
v -2.627334 1.041888 1.000000
v -2.627334 0.999478 1.000000
v -2.627334 1.235455 -1.000000
v -2.627334 -1.235455 1.000000
v -2.688168 1.357339 -1.000000
v -2.688168 1.454790 -1.000000
v -2.553692 1.551365 -0.954202
v -2.627334 1.041888 -1.000000
v -2.627334 0.999478 0.276589
vn -1.0000 -0.0000 -0.0000
vn -0.0000 -0.0000 -1.0000
vn 1.0000 -0.0000 -0.0000
vn -0.0000 -0.0000 1.0000
vn -0.0000 -1.0000 -0.0000
vn -0.8790 -0.4768 -0.0000
vn -0.0000 -0.8418 0.5398
vn 0.8790 -0.4768 -0.0000
vn 0.5513 0.8343 -0.0000
vn -0.0000 1.0000 -0.0000
vn -0.5513 0.8343 -0.0000
vn -0.0000 0.5741 0.8188
vn -0.0000 0.4285 -0.9036
vn -0.7561 -0.6530 -0.0434
vn -0.9996 -0.0000 -0.0287
vn -0.0000 -0.9994 -0.0332
vn 0.6091 -0.7914 -0.0526
vn 0.9991 -0.0000 -0.0431
vt 0.605415 0.000000
vt 0.625000 0.000000
vt 0.625000 0.250000
vt 0.605415 0.250000
vt 0.605415 0.493368
vt 0.625000 0.493368
vt 0.625000 0.500000
vt 0.605415 0.500000
vt 0.625000 0.750000
vt 0.605415 0.750000
vt 0.605415 0.992438
vt 0.625000 0.992438
vt 0.625000 1.000000
vt 0.605415 1.000000
vt 0.368368 0.500000
vt 0.375000 0.500000
vt 0.375000 0.750000
vt 0.368368 0.750000
vt 0.625000 0.257562
vt 0.625000 0.257562
vt 0.625000 0.756632
vt 0.625000 0.756632
vt 0.625000 0.756632
vt 0.867438 0.500000
vt 0.875000 0.500000
vt 0.875000 0.750000
vt 0.867438 0.750000
vt 0.601125 0.992438
vt 0.601125 1.000000
vt 0.601125 0.500000
vt 0.601125 0.750000
vt 0.601125 0.493368
vt 0.601125 0.000000
vt 0.601125 0.250000
vt 0.605415 0.257562
vt 0.601125 0.257562
vt 0.601125 0.990026
vt 0.605415 0.990026
vt 0.625000 0.259974
vt 0.625000 0.259974
vt 0.625000 0.992438
vt 0.865026 0.500000
vt 0.865026 0.750000
vt 0.625000 0.259974
vt 0.125000 0.500000
vt 0.132562 0.500000
vt 0.132562 0.750000
vt 0.125000 0.750000
vt 0.625000 0.990026
vt 0.605415 0.756632
vt 0.625000 0.493368
vt 0.631632 0.500000
vt 0.631632 0.750000
vt 0.601125 0.756632
vt 0.601125 0.491765
vt 0.605415 0.491765
vt 0.625000 0.758235
vt 0.625000 0.758235
vt 0.625000 0.758235
vt 0.366765 0.500000
vt 0.366765 0.750000
vt 0.625000 0.491765
vt 0.375000 0.491765
vt 0.375000 0.493368
vt 0.375000 0.756632
vt 0.375000 0.990026
vt 0.375000 0.992438
vt 0.375000 0.250000
vt 0.375000 0.257562
vt 0.375000 0.000000
vt 0.375000 1.000000
vt 0.601125 0.758235
vt 0.375000 0.758235
vt 0.375000 0.259974
vt 0.601125 0.259974
vt 0.605415 0.259974
vt 0.134974 0.500000
vt 0.134974 0.750000
vt 0.625000 0.990026
vt 0.625000 0.990026
vt 0.625000 0.990026
vt 0.605415 0.758235
vt 0.625000 0.491765
vt 0.633235 0.500000
vt 0.633235 0.750000
s 0
f 21/1/1 2/2/1 4/3/1 22/4/1
f 42/5/2 37/6/2 8/7/2 23/8/2
f 23/8/3 8/7/3 6/9/3 24/10/3
f 35/11/4 28/12/4 2/13/4 21/14/4
f 43/15/5 7/16/5 5/17/5 38/18/5
f 4/3/6 2/2/6 9/2/6 10/3/6
f 29/19/2 10/3/2 14/3/2 31/20/2
f 44/21/7 6/9/7 11/9/7 45/22/7
f 26/19/2 4/3/2 10/3/2 29/19/2
f 6/9/8 8/7/8 12/7/8 11/9/8
f 15/9/9 16/7/9 20/7/9 19/9/9
f 11/9/3 12/7/3 16/7/3 15/9/3
f 10/3/1 9/2/1 13/2/1 14/3/1
f 45/22/4 11/9/4 15/9/4 46/23/4
f 33/24/10 18/25/10 17/26/10 34/27/10
f 14/3/11 13/2/11 17/2/11 18/3/11
f 46/23/12 15/9/12 19/9/12 47/23/12
f 31/20/13 14/3/13 18/3/13 33/19/13
f 54/28/4 35/11/4 21/14/4 52/29/4
f 50/30/3 23/8/3 24/10/3 51/31/3
f 56/32/2 42/5/2 23/8/2 50/30/2
f 52/33/1 21/1/1 22/4/1 49/34/1
f 49/34/2 22/4/2 36/35/2 53/36/2
f 77/37/4 76/38/4 35/11/4 54/28/4
f 81/39/13 31/20/13 33/19/13 82/40/13
f 13/13/12 32/41/12 34/41/12 17/13/12
f 82/42/10 33/24/10 34/27/10 75/43/10
f 9/13/4 30/41/4 32/41/4 13/13/4
f 78/44/2 26/19/2 29/19/2 80/44/2
f 2/13/7 28/12/7 30/41/7 9/13/7
f 80/44/2 29/19/2 31/20/2 81/39/2
f 3/45/5 25/46/5 27/47/5 1/48/5
f 76/38/4 72/49/4 28/12/4 35/11/4
f 22/4/2 4/3/2 26/19/2 36/35/2
f 24/10/4 6/9/4 44/21/4 48/50/4
f 12/7/2 39/6/2 40/51/2 16/7/2
f 8/7/2 37/6/2 39/6/2 12/7/2
f 20/7/10 41/52/10 47/53/10 19/9/10
f 16/7/13 40/51/13 41/51/13 20/7/13
f 51/31/4 24/10/4 48/50/4 55/54/4
f 69/55/14 68/56/14 42/5/14 56/32/14
f 60/57/12 46/23/12 47/23/12 61/58/12
f 59/59/4 45/22/4 46/23/4 60/57/4
f 58/59/7 44/21/7 45/22/7 59/59/7
f 57/60/5 43/15/5 38/18/5 64/61/5
f 68/56/2 63/62/2 37/6/2 42/5/2
f 57/63/15 69/55/15 56/32/15 43/64/15
f 5/17/4 51/31/4 55/54/4 38/65/4
f 79/66/4 77/37/4 54/28/4 27/67/4
f 3/68/2 49/34/2 53/36/2 25/69/2
f 1/70/1 52/33/1 49/34/1 3/68/1
f 43/64/2 56/32/2 50/30/2 7/16/2
f 7/16/3 50/30/3 51/31/3 5/17/3
f 27/67/4 54/28/4 52/29/4 1/71/4
f 38/65/4 55/54/4 70/72/4 64/73/4
f 71/74/2 84/75/2 69/55/2 57/63/2
f 83/76/2 78/44/2 63/62/2 68/56/2
f 71/77/5 57/60/5 64/61/5 79/78/5
f 72/49/7 58/59/7 59/59/7 73/79/7
f 73/79/4 59/59/4 60/57/4 74/80/4
f 74/80/12 60/57/12 61/58/12 75/81/12
f 84/75/16 83/76/16 68/56/16 69/55/16
f 48/50/4 44/21/4 58/59/4 62/82/4
f 39/6/2 65/62/2 66/83/2 40/51/2
f 37/6/2 63/62/2 65/62/2 39/6/2
f 41/52/10 67/84/10 61/85/10 47/53/10
f 40/51/13 66/83/13 67/83/13 41/51/13
f 55/54/4 48/50/4 62/82/4 70/72/4
f 53/36/17 36/35/17 83/76/17 84/75/17
f 32/41/12 74/80/12 75/81/12 34/41/12
f 30/41/4 73/79/4 74/80/4 32/41/4
f 28/12/7 72/49/7 73/79/7 30/41/7
f 25/46/5 71/77/5 79/78/5 27/47/5
f 36/35/2 26/19/2 78/44/2 83/76/2
f 25/69/18 53/36/18 84/75/18 71/74/18
f 64/73/4 70/72/4 77/37/4 79/66/4
f 62/82/4 58/59/4 72/49/4 76/38/4
f 65/62/2 80/44/2 81/39/2 66/83/2
f 63/62/2 78/44/2 80/44/2 65/62/2
f 67/84/10 82/42/10 75/43/10 61/85/10
f 66/83/13 81/39/13 82/40/13 67/83/13
f 70/72/4 62/82/4 76/38/4 77/37/4
