# Blender 4.4.0
# www.blender.org
mtllib pantalla caja.mtl
o pantalla_caja
v 0.168499 0.579773 1.000000
v -0.162186 1.756135 1.000000
v 0.168499 0.579773 -1.000000
v -0.162186 1.756135 -1.000000
v 0.283701 0.612157 1.000000
v -0.046985 1.788519 1.000000
v 0.283701 0.612157 -1.000000
v -0.046985 1.788519 -1.000000
v 0.168499 0.579773 0.967291
v -0.162186 1.756135 0.967291
v 0.283701 0.612157 0.967291
v -0.046985 1.788519 0.967291
v -0.162186 1.756135 -0.972194
v 0.283701 0.612157 -0.972194
v 0.168499 0.579773 -0.972194
v -0.046985 1.788519 -0.972194
v -0.153449 1.725053 1.000000
v -0.153449 1.725053 -1.000000
v -0.038247 1.757437 -1.000000
v -0.038247 1.757437 1.000000
v -0.061390 1.750932 0.966811
v -0.153449 1.725053 0.967291
v -0.061390 1.750932 -0.971714
v -0.153449 1.725053 -0.972194
v 0.160095 0.609669 -1.000000
v 0.275297 0.642053 -1.000000
v 0.275297 0.642053 1.000000
v 0.252154 0.635548 0.966811
v 0.160095 0.609669 0.967291
v 0.252154 0.635548 -0.971714
v 0.160095 0.609669 -0.972194
v 0.160095 0.609669 1.000000
v 0.181935 0.576104 -1.000000
v -0.152631 1.766272 -1.000000
v 0.181935 0.576104 1.000000
v -0.152631 1.766272 1.000000
v -0.152631 1.766272 0.967291
v 0.181935 0.576104 0.967291
v 0.181935 0.576104 -0.972194
v -0.152631 1.766272 -0.972194
v -0.143791 1.734826 1.000000
v -0.143791 1.734826 -1.000000
v 0.173432 0.606351 -1.000000
v 0.173432 0.606351 1.000000
v -0.063279 1.794864 -1.000000
v 0.273097 0.598258 1.000000
v -0.063279 1.794864 0.967291
v -0.063279 1.794864 -0.972194
v -0.054391 1.763247 -1.000000
v 0.264548 0.628669 -1.000000
v 0.273097 0.598258 -1.000000
v -0.063279 1.794864 1.000000
v 0.273097 0.598258 0.967291
v 0.273097 0.598258 -0.972194
v -0.054391 1.763247 1.000000
v 0.264548 0.628669 1.000000
v -0.058383 0.183573 0.089953
v -0.058383 1.411017 0.089953
v -0.058383 0.183573 -0.089953
v -0.058383 1.411017 -0.089953
v 0.058382 0.183573 0.089953
v -0.034388 1.411017 0.089953
v 0.058382 0.183573 -0.089953
v -0.034388 1.411017 -0.089953
v -0.058383 1.282830 0.089953
v -0.058383 1.282830 -0.089953
v 0.058382 1.282830 -0.089953
v 0.058382 1.282830 0.089953
v -0.342971 0.214527 0.622246
v -0.342971 0.135071 0.622246
v -0.342971 0.214527 -0.622246
v -0.342971 0.135071 -0.622246
v 0.342972 0.214527 0.622246
v 0.342972 0.135071 0.622246
v 0.342972 0.214527 -0.622246
v 0.342972 0.135071 -0.622246
v 0.327343 0.214527 -0.622246
v 0.327343 0.135071 -0.622246
v 0.327343 0.214527 0.622246
v 0.327343 0.135071 0.622246
v -0.327987 0.214527 -0.622246
v -0.327987 0.135071 0.622246
v -0.327987 0.135071 -0.622246
v -0.327987 0.214527 0.622246
v -0.342971 0.214527 -0.609493
v -0.342971 0.135071 -0.609493
v 0.342972 0.214527 -0.609493
v 0.342972 0.135071 -0.609493
v 0.327343 0.135071 -0.609493
v 0.327343 0.225634 -0.609493
v -0.327987 0.225634 -0.609493
v -0.327987 0.135071 -0.609493
v -0.342971 0.214527 0.604774
v 0.342972 0.135071 0.604774
v 0.327343 0.135071 0.604774
v 0.327343 0.225634 0.604774
v -0.327987 0.225634 0.604774
v -0.327987 0.135071 0.604774
v -0.342971 0.135071 0.604774
v 0.342972 0.214527 0.604774
vn -0.9627 -0.2706 -0.0000
vn -0.0000 -0.0000 -1.0000
vn 0.9431 -0.0756 -0.3237
vn -0.0000 -0.0000 1.0000
vn 0.7950 -0.6066 -0.0000
vn -0.7277 0.6859 -0.0000
vn 0.9338 -0.3579 -0.0000
vn 0.9249 -0.0737 0.3730
vn 0.7336 0.2062 0.6476
vn 0.9627 0.2706 -0.0000
vn 0.7797 0.2192 -0.5866
vn 0.7588 0.5660 -0.3224
vn 0.5956 0.8033 -0.0000
vn 0.7445 0.5548 0.3715
vn -0.3048 0.9524 -0.0000
vn -0.2634 -0.9647 -0.0000
vn 0.3629 0.9318 -0.0000
vn 0.2362 -0.9717 -0.0000
vn 0.2361 -0.9717 -0.0000
vn -1.0000 -0.0000 -0.0000
vn 0.8101 0.5863 -0.0000
vn -0.0000 -1.0000 -0.0000
vn -0.0000 1.0000 -0.0000
vn 1.0000 -0.0000 -0.0000
vn -0.3208 -0.9027 -0.2869
vn -0.0000 -0.8439 -0.5365
vn 0.3330 -0.8986 -0.2856
vn 0.3217 -0.8681 0.3780
vn -0.0000 -0.7541 0.6568
vn -0.3098 -0.8717 0.3796
vn 0.5955 -0.8034 -0.0000
vn -0.5793 -0.8151 -0.0000
vt 0.618395 0.246524
vt 0.625000 0.246524
vt 0.625000 0.250000
vt 0.618395 0.250000
vt 0.618395 0.470816
vt 0.625000 0.470816
vt 0.625000 0.500000
vt 0.618395 0.500000
vt 0.618395 0.745911
vt 0.625000 0.745911
vt 0.625000 0.750000
vt 0.618395 0.750000
vt 0.618395 0.975052
vt 0.625000 0.975052
vt 0.625000 1.000000
vt 0.618395 1.000000
vt 0.345816 0.745911
vt 0.375000 0.745911
vt 0.375000 0.750000
vt 0.345816 0.750000
vt 0.850052 0.745911
vt 0.875000 0.745911
vt 0.875000 0.750000
vt 0.850052 0.750000
vt 0.850052 0.503476
vt 0.875000 0.503476
vt 0.345816 0.503476
vt 0.375000 0.503476
vt 0.618395 0.503476
vt 0.625000 0.503476
vt 0.618395 0.000000
vt 0.625000 0.000000
vt 0.625000 0.004089
vt 0.618395 0.004089
vt 0.345816 0.500000
vt 0.375000 0.500000
vt 0.850052 0.500000
vt 0.875000 0.500000
vt 0.381354 0.004089
vt 0.381354 0.246524
vt 0.381354 0.500000
vt 0.381354 0.503476
vt 0.381354 0.000000
vt 0.381354 0.745911
vt 0.381354 0.975052
vt 0.381354 1.000000
vt 0.381354 0.750000
vt 0.381354 0.470816
vt 0.381354 0.250000
vt 0.375000 0.246524
vt 0.375000 0.250000
vt 0.375000 0.470816
vt 0.375000 0.975052
vt 0.375000 1.000000
vt 0.375000 0.000000
vt 0.375000 0.004089
vt 0.375000 0.779184
vt 0.381354 0.779184
vt 0.381354 0.274948
vt 0.375000 0.274948
vt 0.618395 0.274948
vt 0.618395 0.779184
vt 0.654184 0.500000
vt 0.654184 0.503476
vt 0.125000 0.500000
vt 0.149948 0.500000
vt 0.149948 0.503476
vt 0.125000 0.503476
vt 0.149948 0.745911
vt 0.125000 0.745911
vt 0.654184 0.745911
vt 0.654184 0.750000
vt 0.149948 0.750000
vt 0.125000 0.750000
vt 0.625000 0.779184
vt 0.625000 0.274948
vt 0.608977 0.000000
vt 0.608977 0.250000
vt 0.608977 0.500000
vt 0.608977 0.750000
vt 0.608977 1.000000
vt 0.375000 0.247438
vt 0.625000 0.247438
vt 0.375000 0.494304
vt 0.625000 0.494304
vt 0.375000 0.746490
vt 0.625000 0.746490
vt 0.375000 0.994539
vt 0.625000 0.994539
vt 0.369304 0.746490
vt 0.369304 0.750000
vt 0.869539 0.746490
vt 0.875000 0.746490
vt 0.869539 0.750000
vt 0.630696 0.746490
vt 0.630696 0.750000
vt 0.130461 0.746490
vt 0.130461 0.750000
vt 0.625000 0.755696
vt 0.375000 0.755696
vt 0.375000 0.255461
vt 0.625000 0.255461
vt 0.125000 0.746490
vt 0.630696 0.500000
vt 0.869539 0.500000
vt 0.869539 0.502562
vt 0.630696 0.502562
vt 0.130461 0.500000
vt 0.130461 0.502562
vt 0.125000 0.502562
vt 0.369304 0.500000
vt 0.369304 0.502562
vt 0.625000 0.502562
vt 0.875000 0.502562
vt 0.375000 0.502562
vt 0.375000 0.003510
vt 0.625000 0.003510
s 0
f 24/1/1 13/2/1 4/3/1 18/4/1
f 49/5/2 45/6/2 8/7/2 19/8/2
f 21/9/3 12/10/3 6/11/3 20/12/3
f 41/13/4 36/14/4 2/15/4 17/16/4
f 53/17/5 11/18/5 5/19/5 46/20/5
f 37/21/6 10/22/6 2/23/6 36/24/6
f 40/25/6 13/26/6 10/22/6 37/21/6
f 54/27/5 14/28/5 11/18/5 53/17/5
f 23/29/7 16/30/7 12/10/7 21/9/7
f 17/31/1 2/32/1 10/33/1 22/34/1
f 19/8/8 8/7/8 16/30/8 23/29/8
f 51/35/5 7/36/5 14/28/5 54/27/5
f 34/37/6 4/38/6 13/26/6 40/25/6
f 22/34/1 10/33/1 13/2/1 24/1/1
f 29/39/1 22/34/1 24/1/1 31/40/1
f 26/41/9 19/8/9 23/29/9 30/42/9
f 32/43/1 17/31/1 22/34/1 29/39/1
f 30/42/10 23/29/10 21/9/10 28/44/10
f 44/45/4 41/13/4 17/16/4 32/46/4
f 28/44/11 21/9/11 20/12/11 27/47/11
f 50/48/2 49/5/2 19/8/2 26/41/2
f 31/40/1 24/1/1 18/4/1 25/49/1
f 15/50/1 31/40/1 25/49/1 3/51/1
f 51/52/2 50/48/2 26/41/2 7/36/2
f 11/18/12 28/44/12 27/47/12 5/19/12
f 35/53/4 44/45/4 32/46/4 1/54/4
f 14/28/13 30/42/13 28/44/13 11/18/13
f 1/55/1 32/43/1 29/39/1 9/56/1
f 7/36/14 26/41/14 30/42/14 14/28/14
f 9/56/1 29/39/1 31/40/1 15/50/1
f 46/57/4 56/58/4 44/45/4 35/53/4
f 3/51/2 25/49/2 43/59/2 33/60/2
f 25/49/2 18/4/2 42/61/2 43/59/2
f 56/58/4 55/62/4 41/13/4 44/45/4
f 45/63/15 34/37/15 40/25/15 48/64/15
f 3/65/16 33/66/16 39/67/16 15/68/16
f 15/68/16 39/67/16 38/69/16 9/70/16
f 48/64/15 40/25/15 37/21/15 47/71/15
f 47/71/15 37/21/15 36/24/15 52/72/15
f 9/70/16 38/69/16 35/73/16 1/74/16
f 55/62/4 52/75/4 36/14/4 41/13/4
f 18/4/2 4/3/2 34/76/2 42/61/2
f 20/12/4 6/11/4 52/75/4 55/62/4
f 12/10/17 47/71/17 52/72/17 6/11/17
f 16/30/17 48/64/17 47/71/17 12/10/17
f 8/7/17 45/63/17 48/64/17 16/30/17
f 27/47/4 20/12/4 55/62/4 56/58/4
f 5/19/4 27/47/4 56/58/4 46/57/4
f 33/60/2 43/59/2 50/48/2 51/52/2
f 43/59/2 42/61/2 49/5/2 50/48/2
f 33/66/18 51/35/18 54/27/18 39/67/18
f 39/67/19 54/27/19 53/17/19 38/69/19
f 38/69/18 53/17/18 46/20/18 35/73/18
f 42/61/2 34/76/2 45/6/2 49/5/2
f 65/77/20 58/32/20 60/3/20 66/78/20
f 66/78/2 60/3/2 64/7/2 67/79/2
f 67/79/21 64/7/21 62/11/21 68/80/21
f 68/80/4 62/11/4 58/15/4 65/81/4
f 59/65/22 63/36/22 61/19/22 57/74/22
f 64/7/23 60/38/23 58/23/23 62/11/23
f 61/19/4 68/80/4 65/81/4 57/54/4
f 63/36/24 67/79/24 68/80/24 61/19/24
f 59/51/2 66/78/2 67/79/2 63/36/2
f 57/55/20 65/77/20 66/78/20 59/51/20
f 85/82/24 86/83/24 72/3/24 71/51/24
f 77/84/4 78/85/4 76/7/4 75/36/4
f 100/86/20 94/87/20 74/11/20 73/19/20
f 84/88/2 82/89/2 70/15/2 69/54/2
f 96/90/25 100/86/25 73/19/25 79/91/25
f 98/92/23 99/93/23 70/23/23 82/94/23
f 94/87/23 95/95/23 80/96/23 74/11/23
f 97/97/26 96/90/26 79/91/26 84/98/26
f 73/19/2 74/11/2 80/99/2 79/100/2
f 81/101/4 83/102/4 78/85/4 77/84/4
f 71/51/4 72/3/4 83/102/4 81/101/4
f 93/103/27 97/97/27 84/98/27 69/74/27
f 95/95/23 98/92/23 82/94/23 80/96/23
f 79/100/2 80/99/2 82/89/2 84/88/2
f 78/104/23 83/105/23 92/106/23 89/107/23
f 71/65/28 81/108/28 91/109/28 85/110/28
f 81/108/29 77/111/29 90/112/29 91/109/29
f 76/7/23 78/104/23 89/107/23 88/113/23
f 83/105/23 72/38/23 86/114/23 92/106/23
f 77/111/30 75/36/30 87/115/30 90/112/30
f 75/36/20 76/7/20 88/113/20 87/115/20
f 93/116/24 99/117/24 86/83/24 85/82/24
f 69/55/24 70/32/24 99/117/24 93/116/24
f 89/107/23 92/106/23 98/92/23 95/95/23
f 85/110/31 91/109/31 97/97/31 93/103/31
f 91/109/22 90/112/22 96/90/22 97/97/22
f 88/113/23 89/107/23 95/95/23 94/87/23
f 92/106/23 86/114/23 99/93/23 98/92/23
f 90/112/32 87/115/32 100/86/32 96/90/32
f 87/115/20 88/113/20 94/87/20 100/86/20
