# Blender 4.4.0
# www.blender.org
mtllib monton de cajas 2.mtl
o CAJA_BASE
v 1.456045 1.019602 -1.719588
v 1.456045 3.019602 -1.719588
v 0.851714 1.019602 2.184495
v 0.851714 3.019602 2.184495
v -1.126843 1.019602 -2.129235
v -1.126843 3.019602 -2.129235
v -1.731468 1.019602 1.773662
v -1.731468 3.019602 1.773662
v 1.481075 1.019602 -1.674105
v 1.481075 3.019602 -1.674105
v -1.151135 1.019602 -2.086762
v -1.151135 3.019602 -2.086762
v 0.881505 3.019602 2.150361
v -1.750705 1.019602 1.737704
v 0.881505 1.019602 2.150361
v -1.750705 3.019602 1.737704
v -1.706449 1.019602 1.799032
v -1.706449 3.019602 1.799032
v -1.087809 1.019602 -2.147076
v -1.087809 3.019602 -2.147076
v -1.098557 3.040388 -2.078520
v -1.098557 0.998816 -2.078520
v -1.698126 0.998816 1.745947
v -1.698126 3.040388 1.745947
v 0.804589 1.019602 2.192693
v 1.423229 3.019602 -1.753416
v 1.412481 0.998816 -1.684859
v 0.812911 0.998816 2.139608
v 0.804589 3.019602 2.192693
v 1.423229 1.019602 -1.753416
v 1.412481 3.040388 -1.684859
v 0.812911 3.040388 2.139608
vn 0.7534 -0.0000 0.6576
vn -0.7120 -0.0000 0.7022
vn -0.8680 -0.0000 -0.4965
vn 0.7177 -0.0000 -0.6963
vn -0.2391 -0.9380 -0.2511
vn 0.2826 0.9368 -0.2062
vn 0.2833 0.9580 0.0444
vn -0.3594 -0.9315 -0.0563
vn -0.9879 -0.0000 -0.1549
vn 0.8761 -0.0000 -0.4821
vn -0.8818 -0.0000 0.4717
vn -0.3512 -0.9013 0.2535
vn 0.1626 0.9414 0.2954
vn 0.9879 -0.0000 0.1549
vn -0.3512 0.9013 0.2535
vn -0.0559 -0.9327 0.3564
vn -0.0000 -1.0000 -0.0000
vn -0.3594 0.9315 -0.0563
vn -0.2391 0.9380 -0.2511
vn 0.0444 -0.9579 -0.2835
vn -0.4157 -0.0000 -0.9095
vn -0.1549 -0.0000 0.9879
vn 0.1714 -0.0000 0.9852
vn 0.2826 -0.9368 -0.2062
vn 0.2833 -0.9580 0.0444
vn 0.1626 -0.9414 0.2954
vn -0.0559 0.9326 0.3564
vn -0.0000 1.0000 -0.0000
vn 0.0444 0.9579 -0.2835
vn 0.1549 -0.0000 -0.9879
vt 0.647854 0.332130
vt 0.647854 0.000000
vt 0.651042 0.000000
vt 0.651042 0.332130
vt 0.184671 0.677758
vt 0.000000 0.667867
vt 0.001460 0.664260
vt 0.186131 0.674152
vt 0.312945 0.664260
vt 0.312945 0.332130
vt 0.317177 0.332130
vt 0.317177 0.664260
vt 0.321231 0.332130
vt 0.321231 0.000000
vt 0.325962 0.000000
vt 0.325962 0.332130
vt 0.590365 0.338865
vt 0.588446 0.332130
vt 0.591606 0.334223
vt 0.593242 0.338643
vt 0.655057 0.008654
vt 0.658509 0.000000
vt 0.658509 0.004015
vt 0.658509 0.008747
vt 0.598875 0.340674
vt 0.596955 0.332130
vt 0.864510 0.338690
vt 0.866429 0.347234
vt 0.322810 0.345425
vt 0.320891 0.338690
vt 0.001830 0.664260
vt 0.001830 0.332130
vt 0.651042 0.332130
vt 0.651042 0.000000
vt 0.655057 0.000000
vt 0.655057 0.332130
vt 0.000000 0.664260
vt 0.000000 0.332130
vt 0.317177 0.345411
vt 0.318642 0.341806
vt 0.593242 0.340689
vt 0.594306 0.335073
vt 0.594706 0.660921
vt 0.593242 0.657316
vt 0.598875 0.657302
vt 0.596955 0.664037
vt 0.317177 0.662039
vt 0.322810 0.662053
vt 0.590365 0.655493
vt 0.866429 0.663862
vt 0.864510 0.670597
vt 0.869306 0.664084
vt 0.867670 0.668504
vt 0.661961 0.008654
vt 0.661961 0.325454
vt 0.658509 0.325547
vt 0.000000 0.000000
vt 0.004431 0.000000
vt 0.004431 0.332130
vt 0.185060 0.994386
vt 0.000389 0.984494
vt 0.186131 1.000000
vt 0.001460 0.990108
vt 0.320891 0.670597
vt 0.588446 0.664037
vt 0.318241 0.667654
vt 0.655057 0.325454
s 0
f 15/1/1 13/2/1 4/3/1 3/4/1
f 17/5/2 18/6/2 8/7/2 7/8/2
f 11/9/3 12/10/3 6/11/3 5/12/3
f 30/13/4 26/14/4 2/15/4 1/16/4
f 22/17/5 11/18/5 5/19/5 19/20/5
f 31/21/6 10/22/6 2/23/6 26/24/6
f 32/25/7 13/26/7 10/27/7 31/28/7
f 23/29/8 14/30/8 11/18/8 22/17/8
f 14/31/9 16/32/9 12/10/9 11/9/9
f 1/33/10 2/34/10 10/35/10 9/36/10
f 7/37/11 8/38/11 16/32/11 14/31/11
f 17/39/12 7/40/12 14/30/12 23/29/12
f 29/41/13 4/42/13 13/26/13 32/25/13
f 9/16/14 10/15/14 13/2/14 15/1/14
f 8/43/15 18/44/15 24/45/15 16/46/15
f 25/47/16 17/39/16 23/29/16 28/48/16
f 28/48/17 23/29/17 22/17/17 27/49/17
f 16/46/18 24/45/18 21/50/18 12/51/18
f 12/51/19 21/50/19 20/52/19 6/53/19
f 27/54/20 22/55/20 19/56/20 30/24/20
f 5/38/21 6/57/21 20/58/21 19/59/21
f 25/60/22 29/61/22 18/6/22 17/5/22
f 3/62/23 4/63/23 29/61/23 25/60/23
f 9/22/24 27/54/24 30/24/24 1/23/24
f 15/64/25 28/48/25 27/49/25 9/65/25
f 3/66/26 25/47/26 28/48/26 15/64/26
f 18/44/27 29/41/27 32/25/27 24/45/27
f 24/45/28 32/25/28 31/28/28 21/50/28
f 21/67/29 31/21/29 26/24/29 20/56/29
f 19/59/30 20/58/30 26/14/30 30/13/30
o 2
v 2.221594 3.041383 0.002671
v 2.221594 5.041383 0.002671
v -1.196630 3.041383 1.983284
v -1.196630 5.041383 1.983284
v 0.918898 3.041383 -2.264950
v 0.918898 5.041383 -2.264950
v -2.498587 3.041383 -0.285310
v -2.498587 5.041383 -0.285310
v 2.201905 3.041383 0.050708
v 2.201905 5.041383 0.050708
v 0.870588 3.041383 -2.257194
v 0.870588 5.041383 -2.257194
v -1.151358 5.041383 1.985044
v -2.482675 3.041383 -0.322858
v -1.151358 3.041383 1.985044
v -2.482675 5.041383 -0.322858
v -2.502626 3.041383 -0.249909
v -2.502626 5.041383 -0.249909
v 0.957291 3.041383 -2.245768
v 0.957291 5.041383 -2.245768
v 0.897181 5.062169 -2.211093
v 0.897181 3.020597 -2.211093
v -2.456082 3.020597 -0.276758
v -2.456082 5.062169 -0.276758
v -1.232596 3.041383 1.951751
v 2.227322 5.041383 -0.044109
v 2.167212 3.020597 -0.009434
v -1.186052 3.020597 1.924901
v -1.232596 5.041383 1.951751
v 2.227322 3.041383 -0.044109
v 2.167212 5.062169 -0.009434
v -1.186052 5.062169 1.924901
vn -0.0388 -0.0000 0.9992
vn -0.9936 -0.0000 -0.1134
vn -0.1585 -0.0000 -0.9874
vn 0.9926 -0.0000 0.1215
vn 0.0453 -0.9380 -0.3437
vn 0.3379 0.9368 0.0906
vn 0.1433 0.9580 0.2484
vn -0.1818 -0.9315 -0.3151
vn -0.4997 -0.0000 -0.8662
vn 0.9253 -0.0000 0.3792
vn -0.9207 -0.0000 -0.3902
vn -0.4178 -0.9013 -0.1143
vn -0.1279 0.9414 0.3120
vn 0.4997 -0.0000 0.8662
vn -0.4178 0.9013 -0.1143
vn -0.3125 -0.9327 0.1803
vn -0.0000 -1.0000 -0.0000
vn -0.1818 0.9315 -0.3151
vn 0.0453 0.9380 -0.3437
vn 0.2486 -0.9579 -0.1434
vn 0.4469 -0.0000 -0.8946
vn -0.8662 -0.0000 0.4997
vn -0.6593 -0.0000 0.7519
vn 0.3379 -0.9368 0.0906
vn 0.1433 -0.9580 0.2484
vn -0.1279 -0.9414 0.3120
vn -0.3125 0.9326 0.1803
vn -0.0000 1.0000 -0.0000
vn 0.2486 0.9579 -0.1434
vn 0.8662 -0.0000 -0.4997
vt 0.647854 0.332130
vt 0.647854 0.000000
vt 0.651042 0.000000
vt 0.651042 0.332130
vt 0.184671 0.677758
vt 0.000000 0.667867
vt 0.001460 0.664260
vt 0.186131 0.674152
vt 0.312945 0.664260
vt 0.312945 0.332130
vt 0.317177 0.332130
vt 0.317177 0.664260
vt 0.321231 0.332130
vt 0.321231 0.000000
vt 0.325962 0.000000
vt 0.325962 0.332130
vt 0.590365 0.338865
vt 0.588446 0.332130
vt 0.591606 0.334223
vt 0.593242 0.338643
vt 0.655057 0.008654
vt 0.658509 0.000000
vt 0.658509 0.004015
vt 0.658509 0.008747
vt 0.598875 0.340674
vt 0.596955 0.332130
vt 0.864510 0.338690
vt 0.866429 0.347234
vt 0.322810 0.345425
vt 0.320891 0.338690
vt 0.001830 0.664260
vt 0.001830 0.332130
vt 0.651042 0.332130
vt 0.651042 0.000000
vt 0.655057 0.000000
vt 0.655057 0.332130
vt 0.000000 0.664260
vt 0.000000 0.332130
vt 0.317177 0.345411
vt 0.318642 0.341806
vt 0.593242 0.340689
vt 0.594306 0.335073
vt 0.594706 0.660921
vt 0.593242 0.657316
vt 0.598875 0.657302
vt 0.596955 0.664037
vt 0.317177 0.662039
vt 0.322810 0.662053
vt 0.590365 0.655493
vt 0.866429 0.663862
vt 0.864510 0.670597
vt 0.869306 0.664084
vt 0.867670 0.668504
vt 0.661961 0.008654
vt 0.661961 0.325454
vt 0.658509 0.325547
vt 0.000000 0.000000
vt 0.004431 0.000000
vt 0.004431 0.332130
vt 0.185060 0.994386
vt 0.000389 0.984494
vt 0.186131 1.000000
vt 0.001460 0.990108
vt 0.320891 0.670597
vt 0.588446 0.664037
vt 0.318241 0.667654
vt 0.655057 0.325454
s 0
f 47/68/31 45/69/31 36/70/31 35/71/31
f 49/72/32 50/73/32 40/74/32 39/75/32
f 43/76/33 44/77/33 38/78/33 37/79/33
f 62/80/34 58/81/34 34/82/34 33/83/34
f 54/84/35 43/85/35 37/86/35 51/87/35
f 63/88/36 42/89/36 34/90/36 58/91/36
f 64/92/37 45/93/37 42/94/37 63/95/37
f 55/96/38 46/97/38 43/85/38 54/84/38
f 46/98/39 48/99/39 44/77/39 43/76/39
f 33/100/40 34/101/40 42/102/40 41/103/40
f 39/104/41 40/105/41 48/99/41 46/98/41
f 49/106/42 39/107/42 46/97/42 55/96/42
f 61/108/43 36/109/43 45/93/43 64/92/43
f 41/83/44 42/82/44 45/69/44 47/68/44
f 40/110/45 50/111/45 56/112/45 48/113/45
f 57/114/46 49/106/46 55/96/46 60/115/46
f 60/115/47 55/96/47 54/84/47 59/116/47
f 48/113/48 56/112/48 53/117/48 44/118/48
f 44/118/49 53/117/49 52/119/49 38/120/49
f 59/121/50 54/122/50 51/123/50 62/91/50
f 37/105/51 38/124/51 52/125/51 51/126/51
f 57/127/52 61/128/52 50/73/52 49/72/52
f 35/129/53 36/130/53 61/128/53 57/127/53
f 41/89/54 59/121/54 62/91/54 33/90/54
f 47/131/55 60/115/55 59/116/55 41/132/55
f 35/133/56 57/114/56 60/115/56 47/131/56
f 50/111/57 61/108/57 64/92/57 56/112/57
f 56/112/58 64/92/58 63/95/58 53/117/58
f 53/134/59 63/88/59 58/91/59 52/123/59
f 51/126/60 52/125/60 58/81/60 62/80/60
o 3
v 0.590253 -1.002178 -2.385724
v 0.590253 0.997822 -2.385724
v 1.658623 -1.002178 1.417652
v 1.658623 0.997822 1.417652
v -1.930083 -1.002178 -1.687850
v -1.930083 0.997822 -1.687850
v -0.862472 -1.002178 2.114568
v -0.862472 0.997822 2.114568
v 0.631885 -1.002178 -2.354708
v 0.631885 0.997822 -2.354708
v -1.934584 -1.002178 -1.639129
v -1.934584 0.997822 -1.639129
v 1.671586 0.997822 1.374239
v -0.894883 -1.002178 2.089819
v 1.671586 -1.002178 1.374239
v -0.894883 0.997822 2.089819
v -0.829187 -1.002178 2.127284
v -0.829187 0.997822 2.127284
v -1.901956 -1.002178 -1.720267
v -1.901956 0.997822 -1.720267
v -1.883318 1.018608 -1.653423
v -1.883318 -1.022964 -1.653423
v -0.843618 -1.022964 2.075525
v -0.843618 1.018608 2.075525
v 1.619136 -1.002178 1.444646
v 0.546367 0.997822 -2.402905
v 0.565004 -1.022964 -2.336061
v 1.604705 -1.022964 1.392887
v 1.619136 0.997822 1.444646
v 0.546367 -1.002178 -2.402905
v 0.565004 1.018608 -2.336061
v 1.604705 1.018608 1.392887
vn 0.9582 -0.0000 0.2861
vn -0.3569 -0.0000 0.9342
vn -0.9958 -0.0000 -0.0920
vn 0.3645 -0.0000 -0.9312
vn -0.3217 -0.9380 -0.1294
vn 0.1718 0.9368 -0.3048
vn 0.2763 0.9580 -0.0770
vn -0.3504 -0.9315 0.0977
vn -0.9633 -0.0000 0.2686
vn 0.5974 -0.0000 -0.8019
vn -0.6069 -0.0000 0.7948
vn -0.2146 -0.9013 0.3762
vn 0.2704 0.9414 0.2014
vn 0.9633 -0.0000 -0.2686
vn -0.2146 0.9013 0.3762
vn 0.0969 -0.9327 0.3475
vn -0.0000 -1.0000 -0.0000
vn -0.3504 0.9315 0.0977
vn -0.3217 0.9380 -0.1294
vn -0.0771 -0.9579 -0.2764
vn -0.7553 -0.0000 -0.6554
vn 0.2686 -0.0000 0.9633
vn 0.5644 -0.0000 0.8255
vn 0.1718 -0.9368 -0.3048
vn 0.2763 -0.9580 -0.0770
vn 0.2704 -0.9414 0.2014
vn 0.0969 0.9326 0.3475
vn -0.0000 1.0000 -0.0000
vn -0.0771 0.9579 -0.2764
vn -0.2686 -0.0000 -0.9633
vt 0.647854 0.332130
vt 0.647854 0.000000
vt 0.651042 0.000000
vt 0.651042 0.332130
vt 0.184671 0.677758
vt 0.000000 0.667867
vt 0.001460 0.664260
vt 0.186131 0.674152
vt 0.312945 0.664260
vt 0.312945 0.332130
vt 0.317177 0.332130
vt 0.317177 0.664260
vt 0.321231 0.332130
vt 0.321231 0.000000
vt 0.325962 0.000000
vt 0.325962 0.332130
vt 0.590365 0.338865
vt 0.588446 0.332130
vt 0.591606 0.334223
vt 0.593242 0.338643
vt 0.655057 0.008654
vt 0.658509 0.000000
vt 0.658509 0.004015
vt 0.658509 0.008747
vt 0.598875 0.340674
vt 0.596955 0.332130
vt 0.864510 0.338690
vt 0.866429 0.347234
vt 0.322810 0.345425
vt 0.320891 0.338690
vt 0.001830 0.664260
vt 0.001830 0.332130
vt 0.651042 0.332130
vt 0.651042 0.000000
vt 0.655057 0.000000
vt 0.655057 0.332130
vt 0.000000 0.664260
vt 0.000000 0.332130
vt 0.317177 0.345411
vt 0.318642 0.341806
vt 0.593242 0.340689
vt 0.594306 0.335073
vt 0.594706 0.660921
vt 0.593242 0.657316
vt 0.598875 0.657302
vt 0.596955 0.664037
vt 0.317177 0.662039
vt 0.322810 0.662053
vt 0.590365 0.655493
vt 0.866429 0.663862
vt 0.864510 0.670597
vt 0.869306 0.664084
vt 0.867670 0.668504
vt 0.661961 0.008654
vt 0.661961 0.325454
vt 0.658509 0.325547
vt 0.000000 0.000000
vt 0.004431 0.000000
vt 0.004431 0.332130
vt 0.185060 0.994386
vt 0.000389 0.984494
vt 0.186131 1.000000
vt 0.001460 0.990108
vt 0.320891 0.670597
vt 0.588446 0.664037
vt 0.318241 0.667654
vt 0.655057 0.325454
s 0
f 79/135/61 77/136/61 68/137/61 67/138/61
f 81/139/62 82/140/62 72/141/62 71/142/62
f 75/143/63 76/144/63 70/145/63 69/146/63
f 94/147/64 90/148/64 66/149/64 65/150/64
f 86/151/65 75/152/65 69/153/65 83/154/65
f 95/155/66 74/156/66 66/157/66 90/158/66
f 96/159/67 77/160/67 74/161/67 95/162/67
f 87/163/68 78/164/68 75/152/68 86/151/68
f 78/165/69 80/166/69 76/144/69 75/143/69
f 65/167/70 66/168/70 74/169/70 73/170/70
f 71/171/71 72/172/71 80/166/71 78/165/71
f 81/173/72 71/174/72 78/164/72 87/163/72
f 93/175/73 68/176/73 77/160/73 96/159/73
f 73/150/74 74/149/74 77/136/74 79/135/74
f 72/177/75 82/178/75 88/179/75 80/180/75
f 89/181/76 81/173/76 87/163/76 92/182/76
f 92/182/77 87/163/77 86/151/77 91/183/77
f 80/180/78 88/179/78 85/184/78 76/185/78
f 76/185/79 85/184/79 84/186/79 70/187/79
f 91/188/80 86/189/80 83/190/80 94/158/80
f 69/172/81 70/191/81 84/192/81 83/193/81
f 89/194/82 93/195/82 82/140/82 81/139/82
f 67/196/83 68/197/83 93/195/83 89/194/83
f 73/156/84 91/188/84 94/158/84 65/157/84
f 79/198/85 92/182/85 91/183/85 73/199/85
f 67/200/86 89/181/86 92/182/86 79/198/86
f 82/178/87 93/175/87 96/159/87 88/179/87
f 88/179/88 96/159/88 95/162/88 85/184/88
f 85/201/89 95/155/89 90/158/89 84/190/89
f 83/193/90 84/192/90 90/148/90 94/147/90
